<svg xmlns="http://www.w3.org/2000/svg" viewBox="0 0 24 24" width="24" height="24">
  <circle cx="12" cy="12" r="10" fill="#25D366"/>
  <path d="M17.6 14.2c-.3-.15-1.78-.88-2.06-.98-.28-.1-.48-.15-.68.15s-.78.98-.96 1.18c-.18.2-.36.22-.66.07-.3-.15-1.27-.47-2.42-1.49-.9-.8-1.5-1.78-1.67-2.08-.17-.3-.02-.46.13-.61.13-.13.3-.36.45-.54.15-.18.2-.3.3-.5.1-.2 0-.38-.02-.53-.02-.15-.68-1.64-.94-2.25-.24-.57-.49-.49-.68-.5-.18-.01-.39-.01-.6-.01s-.5.07-.76.36c-.26.29-1 1-1 2.43 0 1.43 1.03 2.8 1.17 2.99.14.2 2.02 3.08 4.9 4.32 2.88 1.24 3.45.95 4.07.89.62-.06 1.78-.73 2.03-1.44.25-.71.25-1.32.17-1.44-.08-.12-.28-.18-.58-.33z" fill="#fff"/>
</svg>